<svg xmlns="http://www.w3.org/2000/svg" viewBox="0 0 32 32">
  <path d="M31.954 8.33c.14 1.258-.796 2.33-1.397 3.353-1.14 1.775-2.648 3.306-3.675 5.15-.472 1.202.91 2 1.61 2.715 1.225 1.255 2.65 2.475 3.395 4.11.485 1.248-.887 1.504-1.88 1.51-1.472.01-2.95.11-4.417.05-2.3-.438-3.192-2.942-5.026-4.102-1.402-.54-1.854 1.45-1.85 2.486.01 1.18-.415 1.475-1.656 1.555-1.242.08-3.107.123-4.552-.507-1.962-.666-3.66-1.948-5.086-3.427C4.267 17.52 1.926 13.2.03 8.74c-.2-.962 1.055-.91 1.707-.892 1.366.02 2.745-.077 4.103.02C7.168 8.28 7 9 7.855 10.997c.957 1.678 1.612 3.653 3.223 4.835 1.51.604 1.376-1.624 1.513-2.55.052-1.407.134-2.938-.477-4.237-.32-.728-2.297-.527-1.022-1.41 1.14-.76 2.617-.547 3.926-.62 1.235.12 3.017-.258 3.654 1.09.228 1.5-.025 3.01.037 4.52.06 1.057-.42 2.838.865 3.282 1.28-.464 1.872-1.907 2.634-2.943.96-1.496 1.636-2.967 2.348-4.587.46-.59 1.238-.49 1.957-.502 1.532-.01 3.067-.016 4.594-.04.35.034.66.193.85.494z"></path>
</svg>
