<svg xmlns="http://www.w3.org/2000/svg" viewBox="0 0 32 32"><path d="M19.356 20.696q0 .687.218 1.405.22.72.75 1.343.53.624 1.248.593.718-.03 1.28-.593.562-.562.75-1.342.186-.78.218-1.404.03-.624-.22-1.436-.25-.812-.748-1.342-.5-.53-1.28-.594-.78-.062-1.25.594-.467.655-.748 1.342-.28.687-.218 1.436zm-11.144 0q0 .687.218 1.405.22.72.75 1.343.53.624 1.248.593.718-.03 1.28-.593.562-.562.75-1.342.186-.78.217-1.404.032-.624-.218-1.436-.25-.812-.75-1.342t-1.28-.594q-.78-.062-1.248.594-.47.655-.75 1.342t-.218 1.436zm-2.81 0q0-2.092 1.217-3.56 1.217-1.466 3.246-1.466.718 0 3.403.375 1.247.187 2.746.187 1.498 0 2.715-.187 2.655-.375 3.404-.375 2.06 0 3.247 1.467 1.187 1.467 1.218 3.56 0 1.528-.562 2.652-.562 1.123-1.405 1.81-.842.687-2.12 1.03-1.28.343-2.436.53-1.155.188-2.59.125h-2.936q-1.436 0-2.59-.124-1.156-.124-2.435-.53-1.28-.406-2.154-1.03-.875-.625-1.406-1.81-.53-1.187-.562-2.654zM1.5 17.606q0 3.62 1.06 5.774.688 1.343 1.843 2.31 1.155.968 2.466 1.5 1.31.53 2.965.842 1.654.312 2.997.374 1.342.063 2.903.094 1.342 0 2.466-.062 1.125-.063 2.56-.22 1.436-.155 2.654-.53 1.217-.374 2.404-.874 1.186-.5 2.09-1.436.906-.936 1.5-1.997 1.092-2.153 1.092-5.775 0-4.12-2.372-6.898.468-1.405.468-2.935 0-2.03-.874-3.808-1.904 0-3.31.687-1.404.687-3.308 2.155-2.56-.625-5.37-.625-2.59 0-4.87.562-1.84-1.436-3.277-2.09-1.436-.657-3.278-.688-.906 1.78-.906 3.808 0 1.5.468 2.903-2.372 2.81-2.372 6.93z"/></svg>
