<svg xmlns="http://www.w3.org/2000/svg" viewBox="0 0 32 32">
  <path d="M23.665 19.143q0-.946-.373-1.723-.372-.778-.913-1.285-.543-.507-1.39-.912-.845-.406-1.555-.643-.71-.236-1.658-.44l-1.963-.472q-.575-.135-.846-.203-.27-.068-.643-.203-.372-.135-.575-.304-.203-.17-.305-.406-.1-.236-.135-.54 0-1.454 2.707-1.454.812 0 1.455.203.643.204 1.015.542.372.338.71.642.34.304.78.54.44.237.913.237.88 0 1.42-.607.542-.608.542-1.453 0-1.048-1.082-1.86-1.083-.81-2.674-1.284-1.59-.473-3.417-.44-1.287 0-2.506.305-1.218.305-2.267.88-1.05.575-1.658 1.622-.61 1.048-.644 2.434 0 1.15.34 2.028.337.88 1.08 1.42.746.54 1.49.912.745.372 1.963.608l2.74.676q1.726.406 2.132.676.61.372.61 1.15 0 .71-.78 1.216-.778.507-1.962.474-.98 0-1.726-.305-.744-.303-1.252-.742-.507-.44-.846-.845-.338-.406-.88-.71-.54-.304-1.015-.304-.946 0-1.42.573-.474.575-.474 1.386 0 1.757 2.3 2.973 2.302 1.217 5.483 1.25 1.387 0 2.64-.337 1.25-.338 2.333-1.014 1.083-.676 1.66-1.757.574-1.082.642-2.502zm6.835 4.09q0 3.008-2.132 5.138t-5.11 2.13q-2.47 0-4.432-1.52-1.456.303-2.81.303-2.706 0-5.176-1.048-2.47-1.047-4.264-2.84-1.794-1.79-2.81-4.224Q2.753 18.74 2.72 16q0-1.386.305-2.84Q1.5 11.2 1.5 8.768q0-3.008 2.132-5.138t5.11-2.13q2.47 0 4.432 1.52 1.456-.303 2.843-.303 2.673 0 5.143 1.048 2.47 1.047 4.264 2.84 1.794 1.79 2.81 4.224Q29.247 13.26 29.28 16q0 1.386-.305 2.84Q30.5 20.8 30.5 23.232z"></path>
</svg>
